{
    "asset" : {
        "generator" : "Khronos glTF Blender I/O v1.3.48",
        "version" : "2.0"
    },
    "scene" : 0,
    "scenes" : [
        {
            "name" : "Scene",
            "nodes" : [
                0,
                2,
                3
            ]
        }
    ],
    "nodes" : [
        {
            "mesh" : 0,
            "name" : "Plane",
            "scale" : [
                16.332937240600586,
                16.332937240600586,
                16.332937240600586
            ],
            "translation" : [
                0,
                -0.11808788031339645,
                0
            ]
        },
        {
            "mesh" : 1,
            "name" : "Cube.001",
            "scale" : [
                4.27350378036499,
                1.1902744770050049,
                3.3461108207702637
            ],
            "translation" : [
                0,
                3.4504313468933105,
                0
            ]
        },
        {
            "children" : [
                1
            ],
            "mesh" : 2,
            "name" : "Cylinder.002",
            "rotation" : [
                -0.24767380952835083,
                -0.45077764987945557,
                -0.8245489597320557,
                0.23574604094028473
            ],
            "scale" : [
                1.1173615455627441,
                4.775049209594727,
                1.1173615455627441
            ],
            "translation" : [
                0,
                25.796775817871094,
                -16.146297454833984
            ]
        },
        {
            "name" : "Camera",
            "rotation" : [
                0.19631648063659668,
                0.7362614870071411,
                -0.6013359427452087,
                0.24036237597465515
            ],
            "translation" : [
                10.68155574798584,
                6.396852016448975,
                -14.396929740905762
            ]
        }
    ],
    "animations" : [
        {
            "channels" : [
                {
                    "sampler" : 0,
                    "target" : {
                        "node" : 0,
                        "path" : "translation"
                    }
                },
                {
                    "sampler" : 1,
                    "target" : {
                        "node" : 0,
                        "path" : "rotation"
                    }
                }
            ],
            "name" : "PlaneAction",
            "samplers" : [
                {
                    "input" : 12,
                    "interpolation" : "STEP",
                    "output" : 13
                },
                {
                    "input" : 12,
                    "interpolation" : "STEP",
                    "output" : 14
                }
            ]
        },
        {
            "channels" : [
                {
                    "sampler" : 0,
                    "target" : {
                        "node" : 1,
                        "path" : "translation"
                    }
                },
                {
                    "sampler" : 1,
                    "target" : {
                        "node" : 1,
                        "path" : "rotation"
                    }
                }
            ],
            "name" : "Cube.001Action",
            "samplers" : [
                {
                    "input" : 12,
                    "interpolation" : "STEP",
                    "output" : 15
                },
                {
                    "input" : 12,
                    "interpolation" : "STEP",
                    "output" : 16
                }
            ]
        },
        {
            "channels" : [
                {
                    "sampler" : 0,
                    "target" : {
                        "node" : 2,
                        "path" : "translation"
                    }
                },
                {
                    "sampler" : 1,
                    "target" : {
                        "node" : 2,
                        "path" : "rotation"
                    }
                }
            ],
            "name" : "Cylinder.002Action",
            "samplers" : [
                {
                    "input" : 17,
                    "interpolation" : "LINEAR",
                    "output" : 18
                },
                {
                    "input" : 17,
                    "interpolation" : "LINEAR",
                    "output" : 19
                }
            ]
        }
    ],
    "materials" : [
        {
            "doubleSided" : true,
            "emissiveFactor" : [
                0,
                0,
                0
            ],
            "name" : "Material.001",
            "normalTexture" : {
                "index" : 0,
                "texCoord" : 0
            },
            "pbrMetallicRoughness" : {
                "baseColorTexture" : {
                    "index" : 1,
                    "texCoord" : 0
                },
                "metallicFactor" : 0,
                "metallicRoughnessTexture" : {
                    "index" : 2,
                    "texCoord" : 0
                }
            }
        },
        {
            "doubleSided" : true,
            "emissiveFactor" : [
                0,
                0,
                0
            ],
            "name" : "Material",
            "normalTexture" : {
                "index" : 3,
                "texCoord" : 0
            },
            "pbrMetallicRoughness" : {
                "baseColorTexture" : {
                    "index" : 4,
                    "texCoord" : 0
                },
                "metallicRoughnessTexture" : {
                    "index" : 5,
                    "texCoord" : 0
                }
            }
        }
    ],
    "meshes" : [
        {
            "name" : "Plane",
            "primitives" : [
                {
                    "attributes" : {
                        "POSITION" : 0,
                        "NORMAL" : 1,
                        "TEXCOORD_0" : 2
                    },
                    "indices" : 3,
                    "material" : 0
                }
            ]
        },
        {
            "name" : "Cube.001",
            "primitives" : [
                {
                    "attributes" : {
                        "POSITION" : 4,
                        "NORMAL" : 5,
                        "TEXCOORD_0" : 6
                    },
                    "indices" : 7,
                    "material" : 1
                }
            ]
        },
        {
            "name" : "Cylinder.001",
            "primitives" : [
                {
                    "attributes" : {
                        "POSITION" : 8,
                        "NORMAL" : 9,
                        "TEXCOORD_0" : 10
                    },
                    "indices" : 11,
                    "material" : 1
                }
            ]
        }
    ],
    "textures" : [
        {
            "source" : 0
        },
        {
            "source" : 1
        },
        {
            "source" : 2
        },
        {
            "source" : 3
        },
        {
            "source" : 4
        },
        {
            "source" : 5
        }
    ],
    "images" : [
        {
            "mimeType" : "image/jpeg",
            "name" : "rocks_ground_06_nor_1k",
            "uri" : "rocks_ground_06_nor_1k.jpg"
        },
        {
            "mimeType" : "image/jpeg",
            "name" : "rocks_ground_06_diff_1k",
            "uri" : "rocks_ground_06_diff_1k.jpg"
        },
        {
            "mimeType" : "image/png",
            "name" : "rocks_ground_06_rough_1k",
            "uri" : "rocks_ground_06_rough_1k.png"
        },
        {
            "mimeType" : "image/jpeg",
            "name" : "rusty_metal_02_nor_4k",
            "uri" : "rusty_metal_02_nor_4k.jpg"
        },
        {
            "mimeType" : "image/jpeg",
            "name" : "rusty_metal_02_diff_4k",
            "uri" : "rusty_metal_02_diff_4k.jpg"
        },
        {
            "mimeType" : "image/png",
            "name" : "rusty_metal_02_ao_4k.jpg-rusty_metal_02_rough_4k.jpg",
            "uri" : "rusty_metal_02_ao_4k_jpg-rusty_metal_02_rough_4k_jpg.png"
        }
    ],
    "accessors" : [
        {
            "bufferView" : 0,
            "componentType" : 5126,
            "count" : 9704,
            "max" : [
                1.0000001192092896,
                0.18001554906368256,
                1.0000001192092896
            ],
            "min" : [
                -1.0000001192092896,
                -0.09710812568664551,
                -1.0000848770141602
            ],
            "type" : "VEC3"
        },
        {
            "bufferView" : 1,
            "componentType" : 5126,
            "count" : 9704,
            "type" : "VEC3"
        },
        {
            "bufferView" : 2,
            "componentType" : 5126,
            "count" : 9704,
            "type" : "VEC2"
        },
        {
            "bufferView" : 3,
            "componentType" : 5123,
            "count" : 52992,
            "type" : "SCALAR"
        },
        {
            "bufferView" : 4,
            "componentType" : 5126,
            "count" : 30669,
            "max" : [
                1,
                1,
                1
            ],
            "min" : [
                -1,
                -1,
                -1.0010210275650024
            ],
            "type" : "VEC3"
        },
        {
            "bufferView" : 5,
            "componentType" : 5126,
            "count" : 30669,
            "type" : "VEC3"
        },
        {
            "bufferView" : 6,
            "componentType" : 5126,
            "count" : 30669,
            "type" : "VEC2"
        },
        {
            "bufferView" : 7,
            "componentType" : 5123,
            "count" : 38190,
            "type" : "SCALAR"
        },
        {
            "bufferView" : 8,
            "componentType" : 5126,
            "count" : 636,
            "max" : [
                1.3809828758239746,
                2.3080575466156006,
                1.3809828758239746
            ],
            "min" : [
                -1.3809826374053955,
                -1.5542566776275635,
                -1.380982756614685
            ],
            "type" : "VEC3"
        },
        {
            "bufferView" : 9,
            "componentType" : 5126,
            "count" : 636,
            "type" : "VEC3"
        },
        {
            "bufferView" : 10,
            "componentType" : 5126,
            "count" : 636,
            "type" : "VEC2"
        },
        {
            "bufferView" : 11,
            "componentType" : 5123,
            "count" : 2484,
            "type" : "SCALAR"
        },
        {
            "bufferView" : 12,
            "componentType" : 5126,
            "count" : 1,
            "max" : [
                0
            ],
            "min" : [
                0
            ],
            "type" : "SCALAR"
        },
        {
            "bufferView" : 13,
            "componentType" : 5126,
            "count" : 1,
            "type" : "VEC3"
        },
        {
            "bufferView" : 14,
            "componentType" : 5126,
            "count" : 1,
            "type" : "VEC4"
        },
        {
            "bufferView" : 15,
            "componentType" : 5126,
            "count" : 1,
            "type" : "VEC3"
        },
        {
            "bufferView" : 16,
            "componentType" : 5126,
            "count" : 1,
            "type" : "VEC4"
        },
        {
            "bufferView" : 17,
            "componentType" : 5126,
            "count" : 51,
            "max" : [
                2
            ],
            "min" : [
                0
            ],
            "type" : "SCALAR"
        },
        {
            "bufferView" : 18,
            "componentType" : 5126,
            "count" : 51,
            "type" : "VEC3"
        },
        {
            "bufferView" : 19,
            "componentType" : 5126,
            "count" : 51,
            "type" : "VEC4"
        }
    ],
    "bufferViews" : [
        {
            "buffer" : 0,
            "byteLength" : 116448,
            "byteOffset" : 0
        },
        {
            "buffer" : 0,
            "byteLength" : 116448,
            "byteOffset" : 116448
        },
        {
            "buffer" : 0,
            "byteLength" : 77632,
            "byteOffset" : 232896
        },
        {
            "buffer" : 0,
            "byteLength" : 105984,
            "byteOffset" : 310528
        },
        {
            "buffer" : 0,
            "byteLength" : 368028,
            "byteOffset" : 416512
        },
        {
            "buffer" : 0,
            "byteLength" : 368028,
            "byteOffset" : 784540
        },
        {
            "buffer" : 0,
            "byteLength" : 245352,
            "byteOffset" : 1152568
        },
        {
            "buffer" : 0,
            "byteLength" : 76380,
            "byteOffset" : 1397920
        },
        {
            "buffer" : 0,
            "byteLength" : 7632,
            "byteOffset" : 1474300
        },
        {
            "buffer" : 0,
            "byteLength" : 7632,
            "byteOffset" : 1481932
        },
        {
            "buffer" : 0,
            "byteLength" : 5088,
            "byteOffset" : 1489564
        },
        {
            "buffer" : 0,
            "byteLength" : 4968,
            "byteOffset" : 1494652
        },
        {
            "buffer" : 0,
            "byteLength" : 4,
            "byteOffset" : 1499620
        },
        {
            "buffer" : 0,
            "byteLength" : 12,
            "byteOffset" : 1499624
        },
        {
            "buffer" : 0,
            "byteLength" : 16,
            "byteOffset" : 1499636
        },
        {
            "buffer" : 0,
            "byteLength" : 12,
            "byteOffset" : 1499652
        },
        {
            "buffer" : 0,
            "byteLength" : 16,
            "byteOffset" : 1499664
        },
        {
            "buffer" : 0,
            "byteLength" : 204,
            "byteOffset" : 1499680
        },
        {
            "buffer" : 0,
            "byteLength" : 612,
            "byteOffset" : 1499884
        },
        {
            "buffer" : 0,
            "byteLength" : 816,
            "byteOffset" : 1500496
        }
    ],
    "buffers" : [
        {
            "byteLength" : 1501312,
            "uri" : "scoopBig.bin"
        }
    ]
}
