{
    "asset" : {
        "generator" : "Khronos glTF Blender I/O v1.3.48",
        "version" : "2.0"
    },
    "scene" : 0,
    "scenes" : [
        {
            "name" : "Scene",
            "nodes" : [
                0,
                6
            ]
        }
    ],
    "nodes" : [
        {
            "name" : "Camera",
            "rotation" : [
                0.19631648063659668,
                0.7362614870071411,
                -0.6013359427452087,
                0.24036237597465515
            ],
            "translation" : [
                10.68155574798584,
                6.396852016448975,
                -14.396929740905762
            ]
        },
        {
            "name" : "Bone.002",
            "rotation" : [
                0.18836644291877747,
                -1.0391656424246776e-08,
                -1.1749011541439813e-08,
                0.9820988178253174
            ],
            "scale" : [
                1,
                0.9999999403953552,
                0.9999999403953552
            ],
            "translation" : [
                -7.651983810676532e-17,
                0.9821610450744629,
                1.1920928244535389e-07
            ]
        },
        {
            "children" : [
                1
            ],
            "name" : "Bone",
            "rotation" : [
                0.8579675555229187,
                -1.3201061355161414e-09,
                5.259782387412315e-09,
                0.5137040615081787
            ],
            "scale" : [
                1,
                1.0000001192092896,
                1.0000001192092896
            ],
            "translation" : [
                1.7763568394002505e-15,
                1.9716379642486572,
                -1.238093614578247
            ]
        },
        {
            "mesh" : 0,
            "name" : "Cube",
            "skin" : 0
        },
        {
            "mesh" : 1,
            "name" : "Cylinder",
            "skin" : 0
        },
        {
            "mesh" : 2,
            "name" : "Cylinder.001",
            "skin" : 0
        },
        {
            "children" : [
                3,
                4,
                5,
                2
            ],
            "name" : "Armature",
            "scale" : [
                17.174795150756836,
                17.174795150756836,
                17.174795150756836
            ],
            "translation" : [
                0,
                -7.772003650665283,
                0
            ]
        }
    ],
    "animations" : [
        {
            "channels" : [
                {
                    "sampler" : 0,
                    "target" : {
                        "node" : 2,
                        "path" : "translation"
                    }
                },
                {
                    "sampler" : 1,
                    "target" : {
                        "node" : 2,
                        "path" : "rotation"
                    }
                },
                {
                    "sampler" : 2,
                    "target" : {
                        "node" : 2,
                        "path" : "scale"
                    }
                },
                {
                    "sampler" : 3,
                    "target" : {
                        "node" : 1,
                        "path" : "translation"
                    }
                },
                {
                    "sampler" : 4,
                    "target" : {
                        "node" : 1,
                        "path" : "rotation"
                    }
                },
                {
                    "sampler" : 5,
                    "target" : {
                        "node" : 1,
                        "path" : "scale"
                    }
                }
            ],
            "name" : "ArmatureAction",
            "samplers" : [
                {
                    "input" : 19,
                    "interpolation" : "LINEAR",
                    "output" : 20
                },
                {
                    "input" : 19,
                    "interpolation" : "LINEAR",
                    "output" : 21
                },
                {
                    "input" : 19,
                    "interpolation" : "LINEAR",
                    "output" : 22
                },
                {
                    "input" : 19,
                    "interpolation" : "LINEAR",
                    "output" : 23
                },
                {
                    "input" : 19,
                    "interpolation" : "LINEAR",
                    "output" : 24
                },
                {
                    "input" : 19,
                    "interpolation" : "LINEAR",
                    "output" : 25
                }
            ]
        }
    ],
    "materials" : [
        {
            "doubleSided" : true,
            "emissiveFactor" : [
                0,
                0,
                0
            ],
            "name" : "Material.003",
            "normalTexture" : {
                "index" : 0,
                "texCoord" : 0
            },
            "pbrMetallicRoughness" : {
                "baseColorTexture" : {
                    "index" : 1,
                    "texCoord" : 0
                },
                "metallicRoughnessTexture" : {
                    "index" : 2,
                    "texCoord" : 0
                }
            }
        }
    ],
    "meshes" : [
        {
            "name" : "Cube",
            "primitives" : [
                {
                    "attributes" : {
                        "POSITION" : 0,
                        "NORMAL" : 1,
                        "TEXCOORD_0" : 2,
                        "JOINTS_0" : 3,
                        "WEIGHTS_0" : 4
                    },
                    "indices" : 5,
                    "material" : 0
                }
            ]
        },
        {
            "name" : "Cylinder",
            "primitives" : [
                {
                    "attributes" : {
                        "POSITION" : 7,
                        "NORMAL" : 8,
                        "TEXCOORD_0" : 9,
                        "JOINTS_0" : 10,
                        "WEIGHTS_0" : 11
                    },
                    "indices" : 12,
                    "material" : 0
                }
            ]
        },
        {
            "name" : "Cylinder.002",
            "primitives" : [
                {
                    "attributes" : {
                        "POSITION" : 13,
                        "NORMAL" : 14,
                        "TEXCOORD_0" : 15,
                        "JOINTS_0" : 16,
                        "WEIGHTS_0" : 17
                    },
                    "indices" : 18,
                    "material" : 0
                }
            ]
        }
    ],
    "textures" : [
        {
            "source" : 0
        },
        {
            "source" : 1
        },
        {
            "source" : 2
        }
    ],
    "images" : [
        {
            "mimeType" : "image/jpeg",
            "name" : "rusty_metal_02_nor_4k",
            "uri" : "rusty_metal_02_nor_4k.jpg"
        },
        {
            "mimeType" : "image/jpeg",
            "name" : "rusty_metal_02_diff_4k",
            "uri" : "rusty_metal_02_diff_4k.jpg"
        },
        {
            "mimeType" : "image/png",
            "name" : "rusty_metal_02_ao_4k-rusty_metal_02_rough_4k",
            "uri" : "rusty_metal_02_ao_4k-rusty_metal_02_rough_4k.png"
        }
    ],
    "skins" : [
        {
            "inverseBindMatrices" : 6,
            "joints" : [
                2,
                1
            ],
            "name" : "Armature"
        }
    ],
    "accessors" : [
        {
            "bufferView" : 0,
            "componentType" : 5126,
            "count" : 1500,
            "max" : [
                2.592405319213867,
                18.27098274230957,
                1.7578445672988892
            ],
            "min" : [
                -2.592405319213867,
                8.393590927124023,
                -1.7578445672988892
            ],
            "type" : "VEC3"
        },
        {
            "bufferView" : 1,
            "componentType" : 5126,
            "count" : 1500,
            "type" : "VEC3"
        },
        {
            "bufferView" : 2,
            "componentType" : 5126,
            "count" : 1500,
            "type" : "VEC2"
        },
        {
            "bufferView" : 3,
            "componentType" : 5123,
            "count" : 1500,
            "type" : "VEC4"
        },
        {
            "bufferView" : 4,
            "componentType" : 5126,
            "count" : 1500,
            "type" : "VEC4"
        },
        {
            "bufferView" : 5,
            "componentType" : 5123,
            "count" : 2556,
            "type" : "SCALAR"
        },
        {
            "bufferView" : 6,
            "componentType" : 5126,
            "count" : 2,
            "type" : "MAT4"
        },
        {
            "bufferView" : 7,
            "componentType" : 5126,
            "count" : 1606,
            "max" : [
                1.615899920463562,
                9.808645248413086,
                1.615899682044983
            ],
            "min" : [
                -1.6158995628356934,
                -7.772004127502441,
                -1.6158995628356934
            ],
            "type" : "VEC3"
        },
        {
            "bufferView" : 8,
            "componentType" : 5126,
            "count" : 1606,
            "type" : "VEC3"
        },
        {
            "bufferView" : 9,
            "componentType" : 5126,
            "count" : 1606,
            "type" : "VEC2"
        },
        {
            "bufferView" : 10,
            "componentType" : 5123,
            "count" : 1606,
            "type" : "VEC4"
        },
        {
            "bufferView" : 11,
            "componentType" : 5126,
            "count" : 1606,
            "type" : "VEC4"
        },
        {
            "bufferView" : 12,
            "componentType" : 5123,
            "count" : 2544,
            "type" : "SCALAR"
        },
        {
            "bufferView" : 13,
            "componentType" : 5126,
            "count" : 192,
            "max" : [
                0.9640851020812988,
                9.395243644714355,
                0.2988346517086029
            ],
            "min" : [
                -0.9640851020812988,
                8.797574043273926,
                -0.2988346517086029
            ],
            "type" : "VEC3"
        },
        {
            "bufferView" : 14,
            "componentType" : 5126,
            "count" : 192,
            "type" : "VEC3"
        },
        {
            "bufferView" : 15,
            "componentType" : 5126,
            "count" : 192,
            "type" : "VEC2"
        },
        {
            "bufferView" : 16,
            "componentType" : 5123,
            "count" : 192,
            "type" : "VEC4"
        },
        {
            "bufferView" : 17,
            "componentType" : 5126,
            "count" : 192,
            "type" : "VEC4"
        },
        {
            "bufferView" : 18,
            "componentType" : 5123,
            "count" : 372,
            "type" : "SCALAR"
        },
        {
            "bufferView" : 19,
            "componentType" : 5126,
            "count" : 51,
            "max" : [
                2
            ],
            "min" : [
                0
            ],
            "type" : "SCALAR"
        },
        {
            "bufferView" : 20,
            "componentType" : 5126,
            "count" : 51,
            "type" : "VEC3"
        },
        {
            "bufferView" : 21,
            "componentType" : 5126,
            "count" : 51,
            "type" : "VEC4"
        },
        {
            "bufferView" : 22,
            "componentType" : 5126,
            "count" : 51,
            "type" : "VEC3"
        },
        {
            "bufferView" : 23,
            "componentType" : 5126,
            "count" : 51,
            "type" : "VEC3"
        },
        {
            "bufferView" : 24,
            "componentType" : 5126,
            "count" : 51,
            "type" : "VEC4"
        },
        {
            "bufferView" : 25,
            "componentType" : 5126,
            "count" : 51,
            "type" : "VEC3"
        }
    ],
    "bufferViews" : [
        {
            "buffer" : 0,
            "byteLength" : 18000,
            "byteOffset" : 0
        },
        {
            "buffer" : 0,
            "byteLength" : 18000,
            "byteOffset" : 18000
        },
        {
            "buffer" : 0,
            "byteLength" : 12000,
            "byteOffset" : 36000
        },
        {
            "buffer" : 0,
            "byteLength" : 12000,
            "byteOffset" : 48000
        },
        {
            "buffer" : 0,
            "byteLength" : 24000,
            "byteOffset" : 60000
        },
        {
            "buffer" : 0,
            "byteLength" : 5112,
            "byteOffset" : 84000
        },
        {
            "buffer" : 0,
            "byteLength" : 128,
            "byteOffset" : 89112
        },
        {
            "buffer" : 0,
            "byteLength" : 19272,
            "byteOffset" : 89240
        },
        {
            "buffer" : 0,
            "byteLength" : 19272,
            "byteOffset" : 108512
        },
        {
            "buffer" : 0,
            "byteLength" : 12848,
            "byteOffset" : 127784
        },
        {
            "buffer" : 0,
            "byteLength" : 12848,
            "byteOffset" : 140632
        },
        {
            "buffer" : 0,
            "byteLength" : 25696,
            "byteOffset" : 153480
        },
        {
            "buffer" : 0,
            "byteLength" : 5088,
            "byteOffset" : 179176
        },
        {
            "buffer" : 0,
            "byteLength" : 2304,
            "byteOffset" : 184264
        },
        {
            "buffer" : 0,
            "byteLength" : 2304,
            "byteOffset" : 186568
        },
        {
            "buffer" : 0,
            "byteLength" : 1536,
            "byteOffset" : 188872
        },
        {
            "buffer" : 0,
            "byteLength" : 1536,
            "byteOffset" : 190408
        },
        {
            "buffer" : 0,
            "byteLength" : 3072,
            "byteOffset" : 191944
        },
        {
            "buffer" : 0,
            "byteLength" : 744,
            "byteOffset" : 195016
        },
        {
            "buffer" : 0,
            "byteLength" : 204,
            "byteOffset" : 195760
        },
        {
            "buffer" : 0,
            "byteLength" : 612,
            "byteOffset" : 195964
        },
        {
            "buffer" : 0,
            "byteLength" : 816,
            "byteOffset" : 196576
        },
        {
            "buffer" : 0,
            "byteLength" : 612,
            "byteOffset" : 197392
        },
        {
            "buffer" : 0,
            "byteLength" : 612,
            "byteOffset" : 198004
        },
        {
            "buffer" : 0,
            "byteLength" : 816,
            "byteOffset" : 198616
        },
        {
            "buffer" : 0,
            "byteLength" : 612,
            "byteOffset" : 199432
        }
    ],
    "buffers" : [
        {
            "byteLength" : 200044,
            "uri" : "ScoopSmallAnimated.bin"
        }
    ]
}
