{
    "asset" : {
        "generator" : "Khronos glTF Blender I/O v1.3.48",
        "version" : "2.0"
    },
    "scene" : 0,
    "scenes" : [
        {
            "name" : "Scene",
            "nodes" : [
                0,
                1,
                7
            ]
        }
    ],
    "nodes" : [
        {
            "mesh" : 0,
            "name" : "Plane",
            "scale" : [
                16.332937240600586,
                16.332937240600586,
                16.332937240600586
            ],
            "translation" : [
                0,
                -0.11808788031339645,
                0
            ]
        },
        {
            "name" : "Camera",
            "rotation" : [
                0.19631648063659668,
                0.7362614870071411,
                -0.6013359427452087,
                0.24036237597465515
            ],
            "translation" : [
                10.68155574798584,
                6.396852016448975,
                -14.396929740905762
            ]
        },
        {
            "name" : "Bone.002",
            "rotation" : [
                0.18836644291877747,
                -1.0391656424246776e-08,
                -1.1749011541439813e-08,
                0.9820988178253174
            ],
            "scale" : [
                1,
                0.9999999403953552,
                0.9999999403953552
            ],
            "translation" : [
                -7.651983810676532e-17,
                0.9821610450744629,
                1.1920928244535389e-07
            ]
        },
        {
            "children" : [
                2
            ],
            "name" : "Bone",
            "rotation" : [
                0.8579675555229187,
                -1.3201061355161414e-09,
                5.259782387412315e-09,
                0.5137040615081787
            ],
            "scale" : [
                1,
                1.0000001192092896,
                1.0000001192092896
            ],
            "translation" : [
                1.7763568394002505e-15,
                1.9716379642486572,
                -1.238093614578247
            ]
        },
        {
            "mesh" : 1,
            "name" : "Cube",
            "skin" : 0
        },
        {
            "mesh" : 2,
            "name" : "Cylinder",
            "skin" : 0
        },
        {
            "mesh" : 3,
            "name" : "Cylinder.001",
            "skin" : 0
        },
        {
            "children" : [
                4,
                5,
                6,
                3
            ],
            "name" : "Armature",
            "scale" : [
                17.174795150756836,
                17.174795150756836,
                17.174795150756836
            ],
            "translation" : [
                0,
                -7.772003650665283,
                0
            ]
        }
    ],
    "animations" : [
        {
            "channels" : [
                {
                    "sampler" : 0,
                    "target" : {
                        "node" : 3,
                        "path" : "translation"
                    }
                },
                {
                    "sampler" : 1,
                    "target" : {
                        "node" : 3,
                        "path" : "rotation"
                    }
                },
                {
                    "sampler" : 2,
                    "target" : {
                        "node" : 3,
                        "path" : "scale"
                    }
                },
                {
                    "sampler" : 3,
                    "target" : {
                        "node" : 2,
                        "path" : "translation"
                    }
                },
                {
                    "sampler" : 4,
                    "target" : {
                        "node" : 2,
                        "path" : "rotation"
                    }
                },
                {
                    "sampler" : 5,
                    "target" : {
                        "node" : 2,
                        "path" : "scale"
                    }
                }
            ],
            "name" : "ArmatureAction",
            "samplers" : [
                {
                    "input" : 23,
                    "interpolation" : "LINEAR",
                    "output" : 24
                },
                {
                    "input" : 23,
                    "interpolation" : "LINEAR",
                    "output" : 25
                },
                {
                    "input" : 23,
                    "interpolation" : "LINEAR",
                    "output" : 26
                },
                {
                    "input" : 23,
                    "interpolation" : "LINEAR",
                    "output" : 27
                },
                {
                    "input" : 23,
                    "interpolation" : "LINEAR",
                    "output" : 28
                },
                {
                    "input" : 23,
                    "interpolation" : "LINEAR",
                    "output" : 29
                }
            ]
        }
    ],
    "materials" : [
        {
            "doubleSided" : true,
            "emissiveFactor" : [
                0,
                0,
                0
            ],
            "name" : "Material.001",
            "normalTexture" : {
                "index" : 0,
                "texCoord" : 0
            },
            "pbrMetallicRoughness" : {
                "baseColorTexture" : {
                    "index" : 1,
                    "texCoord" : 0
                },
                "metallicFactor" : 0,
                "metallicRoughnessTexture" : {
                    "index" : 2,
                    "texCoord" : 0
                }
            }
        },
        {
            "doubleSided" : true,
            "emissiveFactor" : [
                0,
                0,
                0
            ],
            "name" : "Material.003",
            "normalTexture" : {
                "index" : 3,
                "texCoord" : 0
            },
            "pbrMetallicRoughness" : {
                "baseColorTexture" : {
                    "index" : 4,
                    "texCoord" : 0
                },
                "metallicRoughnessTexture" : {
                    "index" : 5,
                    "texCoord" : 0
                }
            }
        }
    ],
    "meshes" : [
        {
            "name" : "Plane",
            "primitives" : [
                {
                    "attributes" : {
                        "POSITION" : 0,
                        "NORMAL" : 1,
                        "TEXCOORD_0" : 2
                    },
                    "indices" : 3,
                    "material" : 0
                }
            ]
        },
        {
            "name" : "Cube",
            "primitives" : [
                {
                    "attributes" : {
                        "POSITION" : 4,
                        "NORMAL" : 5,
                        "TEXCOORD_0" : 6,
                        "JOINTS_0" : 7,
                        "WEIGHTS_0" : 8
                    },
                    "indices" : 9,
                    "material" : 1
                }
            ]
        },
        {
            "name" : "Cylinder",
            "primitives" : [
                {
                    "attributes" : {
                        "POSITION" : 11,
                        "NORMAL" : 12,
                        "TEXCOORD_0" : 13,
                        "JOINTS_0" : 14,
                        "WEIGHTS_0" : 15
                    },
                    "indices" : 16,
                    "material" : 1
                }
            ]
        },
        {
            "name" : "Cylinder.002",
            "primitives" : [
                {
                    "attributes" : {
                        "POSITION" : 17,
                        "NORMAL" : 18,
                        "TEXCOORD_0" : 19,
                        "JOINTS_0" : 20,
                        "WEIGHTS_0" : 21
                    },
                    "indices" : 22,
                    "material" : 1
                }
            ]
        }
    ],
    "textures" : [
        {
            "source" : 0
        },
        {
            "source" : 1
        },
        {
            "source" : 2
        },
        {
            "source" : 3
        },
        {
            "source" : 4
        },
        {
            "source" : 5
        }
    ],
    "images" : [
        {
            "mimeType" : "image/jpeg",
            "name" : "rocks_ground_06_nor_1k",
            "uri" : "rocks_ground_06_nor_1k.jpg"
        },
        {
            "mimeType" : "image/jpeg",
            "name" : "rocks_ground_06_diff_1k",
            "uri" : "rocks_ground_06_diff_1k.jpg"
        },
        {
            "mimeType" : "image/png",
            "name" : "rocks_ground_06_rough_1k",
            "uri" : "rocks_ground_06_rough_1k.png"
        },
        {
            "mimeType" : "image/jpeg",
            "name" : "rusty_metal_02_nor_4k",
            "uri" : "rusty_metal_02_nor_4k.jpg"
        },
        {
            "mimeType" : "image/jpeg",
            "name" : "rusty_metal_02_diff_4k",
            "uri" : "rusty_metal_02_diff_4k.jpg"
        },
        {
            "mimeType" : "image/png",
            "name" : "rusty_metal_02_ao_4k-rusty_metal_02_rough_4k",
            "uri" : "rusty_metal_02_ao_4k-rusty_metal_02_rough_4k.png"
        }
    ],
    "skins" : [
        {
            "inverseBindMatrices" : 10,
            "joints" : [
                3,
                2
            ],
            "name" : "Armature"
        }
    ],
    "accessors" : [
        {
            "bufferView" : 0,
            "componentType" : 5126,
            "count" : 9704,
            "max" : [
                1.0000001192092896,
                0.18001554906368256,
                1.0000001192092896
            ],
            "min" : [
                -1.0000001192092896,
                -0.09710812568664551,
                -1.0000848770141602
            ],
            "type" : "VEC3"
        },
        {
            "bufferView" : 1,
            "componentType" : 5126,
            "count" : 9704,
            "type" : "VEC3"
        },
        {
            "bufferView" : 2,
            "componentType" : 5126,
            "count" : 9704,
            "type" : "VEC2"
        },
        {
            "bufferView" : 3,
            "componentType" : 5123,
            "count" : 52992,
            "type" : "SCALAR"
        },
        {
            "bufferView" : 4,
            "componentType" : 5126,
            "count" : 1500,
            "max" : [
                2.592405319213867,
                18.27098274230957,
                1.7578445672988892
            ],
            "min" : [
                -2.592405319213867,
                8.393590927124023,
                -1.7578445672988892
            ],
            "type" : "VEC3"
        },
        {
            "bufferView" : 5,
            "componentType" : 5126,
            "count" : 1500,
            "type" : "VEC3"
        },
        {
            "bufferView" : 6,
            "componentType" : 5126,
            "count" : 1500,
            "type" : "VEC2"
        },
        {
            "bufferView" : 7,
            "componentType" : 5123,
            "count" : 1500,
            "type" : "VEC4"
        },
        {
            "bufferView" : 8,
            "componentType" : 5126,
            "count" : 1500,
            "type" : "VEC4"
        },
        {
            "bufferView" : 9,
            "componentType" : 5123,
            "count" : 2556,
            "type" : "SCALAR"
        },
        {
            "bufferView" : 10,
            "componentType" : 5126,
            "count" : 2,
            "type" : "MAT4"
        },
        {
            "bufferView" : 11,
            "componentType" : 5126,
            "count" : 1606,
            "max" : [
                1.615899920463562,
                9.808645248413086,
                1.615899682044983
            ],
            "min" : [
                -1.6158995628356934,
                -7.772004127502441,
                -1.6158995628356934
            ],
            "type" : "VEC3"
        },
        {
            "bufferView" : 12,
            "componentType" : 5126,
            "count" : 1606,
            "type" : "VEC3"
        },
        {
            "bufferView" : 13,
            "componentType" : 5126,
            "count" : 1606,
            "type" : "VEC2"
        },
        {
            "bufferView" : 14,
            "componentType" : 5123,
            "count" : 1606,
            "type" : "VEC4"
        },
        {
            "bufferView" : 15,
            "componentType" : 5126,
            "count" : 1606,
            "type" : "VEC4"
        },
        {
            "bufferView" : 16,
            "componentType" : 5123,
            "count" : 2544,
            "type" : "SCALAR"
        },
        {
            "bufferView" : 17,
            "componentType" : 5126,
            "count" : 192,
            "max" : [
                0.9640851020812988,
                9.395243644714355,
                0.2988346517086029
            ],
            "min" : [
                -0.9640851020812988,
                8.797574043273926,
                -0.2988346517086029
            ],
            "type" : "VEC3"
        },
        {
            "bufferView" : 18,
            "componentType" : 5126,
            "count" : 192,
            "type" : "VEC3"
        },
        {
            "bufferView" : 19,
            "componentType" : 5126,
            "count" : 192,
            "type" : "VEC2"
        },
        {
            "bufferView" : 20,
            "componentType" : 5123,
            "count" : 192,
            "type" : "VEC4"
        },
        {
            "bufferView" : 21,
            "componentType" : 5126,
            "count" : 192,
            "type" : "VEC4"
        },
        {
            "bufferView" : 22,
            "componentType" : 5123,
            "count" : 372,
            "type" : "SCALAR"
        },
        {
            "bufferView" : 23,
            "componentType" : 5126,
            "count" : 51,
            "max" : [
                2
            ],
            "min" : [
                0
            ],
            "type" : "SCALAR"
        },
        {
            "bufferView" : 24,
            "componentType" : 5126,
            "count" : 51,
            "type" : "VEC3"
        },
        {
            "bufferView" : 25,
            "componentType" : 5126,
            "count" : 51,
            "type" : "VEC4"
        },
        {
            "bufferView" : 26,
            "componentType" : 5126,
            "count" : 51,
            "type" : "VEC3"
        },
        {
            "bufferView" : 27,
            "componentType" : 5126,
            "count" : 51,
            "type" : "VEC3"
        },
        {
            "bufferView" : 28,
            "componentType" : 5126,
            "count" : 51,
            "type" : "VEC4"
        },
        {
            "bufferView" : 29,
            "componentType" : 5126,
            "count" : 51,
            "type" : "VEC3"
        }
    ],
    "bufferViews" : [
        {
            "buffer" : 0,
            "byteLength" : 116448,
            "byteOffset" : 0
        },
        {
            "buffer" : 0,
            "byteLength" : 116448,
            "byteOffset" : 116448
        },
        {
            "buffer" : 0,
            "byteLength" : 77632,
            "byteOffset" : 232896
        },
        {
            "buffer" : 0,
            "byteLength" : 105984,
            "byteOffset" : 310528
        },
        {
            "buffer" : 0,
            "byteLength" : 18000,
            "byteOffset" : 416512
        },
        {
            "buffer" : 0,
            "byteLength" : 18000,
            "byteOffset" : 434512
        },
        {
            "buffer" : 0,
            "byteLength" : 12000,
            "byteOffset" : 452512
        },
        {
            "buffer" : 0,
            "byteLength" : 12000,
            "byteOffset" : 464512
        },
        {
            "buffer" : 0,
            "byteLength" : 24000,
            "byteOffset" : 476512
        },
        {
            "buffer" : 0,
            "byteLength" : 5112,
            "byteOffset" : 500512
        },
        {
            "buffer" : 0,
            "byteLength" : 128,
            "byteOffset" : 505624
        },
        {
            "buffer" : 0,
            "byteLength" : 19272,
            "byteOffset" : 505752
        },
        {
            "buffer" : 0,
            "byteLength" : 19272,
            "byteOffset" : 525024
        },
        {
            "buffer" : 0,
            "byteLength" : 12848,
            "byteOffset" : 544296
        },
        {
            "buffer" : 0,
            "byteLength" : 12848,
            "byteOffset" : 557144
        },
        {
            "buffer" : 0,
            "byteLength" : 25696,
            "byteOffset" : 569992
        },
        {
            "buffer" : 0,
            "byteLength" : 5088,
            "byteOffset" : 595688
        },
        {
            "buffer" : 0,
            "byteLength" : 2304,
            "byteOffset" : 600776
        },
        {
            "buffer" : 0,
            "byteLength" : 2304,
            "byteOffset" : 603080
        },
        {
            "buffer" : 0,
            "byteLength" : 1536,
            "byteOffset" : 605384
        },
        {
            "buffer" : 0,
            "byteLength" : 1536,
            "byteOffset" : 606920
        },
        {
            "buffer" : 0,
            "byteLength" : 3072,
            "byteOffset" : 608456
        },
        {
            "buffer" : 0,
            "byteLength" : 744,
            "byteOffset" : 611528
        },
        {
            "buffer" : 0,
            "byteLength" : 204,
            "byteOffset" : 612272
        },
        {
            "buffer" : 0,
            "byteLength" : 612,
            "byteOffset" : 612476
        },
        {
            "buffer" : 0,
            "byteLength" : 816,
            "byteOffset" : 613088
        },
        {
            "buffer" : 0,
            "byteLength" : 612,
            "byteOffset" : 613904
        },
        {
            "buffer" : 0,
            "byteLength" : 612,
            "byteOffset" : 614516
        },
        {
            "buffer" : 0,
            "byteLength" : 816,
            "byteOffset" : 615128
        },
        {
            "buffer" : 0,
            "byteLength" : 612,
            "byteOffset" : 615944
        }
    ],
    "buffers" : [
        {
            "byteLength" : 616556,
            "uri" : "Scoop_small_animated.bin"
        }
    ]
}
