{
    "asset" : {
        "generator" : "Khronos glTF Blender I/O v1.3.48",
        "version" : "2.0"
    },
    "scene" : 0,
    "scenes" : [
        {
            "name" : "Scene",
            "nodes" : [
                0,
                6
            ]
        }
    ],
    "nodes" : [
        {
            "mesh" : 0,
            "name" : "Plane",
            "scale" : [
                16.332937240600586,
                16.332937240600586,
                16.332937240600586
            ],
            "translation" : [
                0,
                -0.11808788031339645,
                0
            ]
        },
        {
            "name" : "Bone.001",
            "rotation" : [
                -1.0068588629508213e-08,
                0.17877629399299622,
                1.5273546871696908e-09,
                0.9838897585868835
            ],
            "scale" : [
                1,
                0.9999998807907104,
                1
            ],
            "translation" : [
                -3.354952866629901e-07,
                16.868417739868164,
                -8.927136718739348e-07
            ]
        },
        {
            "children" : [
                1
            ],
            "name" : "Bone",
            "rotation" : [
                0.8955913186073303,
                -1.7282971720433693e-09,
                5.140134540226882e-09,
                0.44487789273262024
            ],
            "scale" : [
                1,
                1.0000001192092896,
                1.0000001192092896
            ],
            "translation" : [
                0,
                41.14972686767578,
                -30.45389747619629
            ]
        },
        {
            "mesh" : 1,
            "name" : "Cube",
            "skin" : 0
        },
        {
            "mesh" : 2,
            "name" : "Cylinder",
            "skin" : 0
        },
        {
            "mesh" : 3,
            "name" : "Cylinder.001",
            "skin" : 0
        },
        {
            "children" : [
                3,
                4,
                5,
                2
            ],
            "name" : "Armature",
            "translation" : [
                0,
                -16.893863677978516,
                8.466038703918457
            ]
        }
    ],
    "animations" : [
        {
            "channels" : [
                {
                    "sampler" : 0,
                    "target" : {
                        "node" : 2,
                        "path" : "translation"
                    }
                },
                {
                    "sampler" : 1,
                    "target" : {
                        "node" : 2,
                        "path" : "rotation"
                    }
                },
                {
                    "sampler" : 2,
                    "target" : {
                        "node" : 2,
                        "path" : "scale"
                    }
                },
                {
                    "sampler" : 3,
                    "target" : {
                        "node" : 1,
                        "path" : "translation"
                    }
                },
                {
                    "sampler" : 4,
                    "target" : {
                        "node" : 1,
                        "path" : "rotation"
                    }
                },
                {
                    "sampler" : 5,
                    "target" : {
                        "node" : 1,
                        "path" : "scale"
                    }
                }
            ],
            "name" : "ArmatureAction.002",
            "samplers" : [
                {
                    "input" : 23,
                    "interpolation" : "LINEAR",
                    "output" : 24
                },
                {
                    "input" : 23,
                    "interpolation" : "LINEAR",
                    "output" : 25
                },
                {
                    "input" : 23,
                    "interpolation" : "LINEAR",
                    "output" : 26
                },
                {
                    "input" : 23,
                    "interpolation" : "LINEAR",
                    "output" : 27
                },
                {
                    "input" : 23,
                    "interpolation" : "LINEAR",
                    "output" : 28
                },
                {
                    "input" : 23,
                    "interpolation" : "LINEAR",
                    "output" : 29
                }
            ]
        }
    ],
    "materials" : [
        {
            "doubleSided" : true,
            "emissiveFactor" : [
                0,
                0,
                0
            ],
            "name" : "Material.001",
            "normalTexture" : {
                "index" : 0,
                "texCoord" : 0
            },
            "pbrMetallicRoughness" : {
                "baseColorTexture" : {
                    "index" : 1,
                    "texCoord" : 0
                },
                "metallicFactor" : 0,
                "metallicRoughnessTexture" : {
                    "index" : 2,
                    "texCoord" : 0
                }
            }
        },
        {
            "doubleSided" : true,
            "emissiveFactor" : [
                0,
                0,
                0
            ],
            "name" : "Material.003",
            "normalTexture" : {
                "index" : 3,
                "texCoord" : 0
            },
            "pbrMetallicRoughness" : {
                "baseColorTexture" : {
                    "index" : 4,
                    "texCoord" : 0
                },
                "metallicRoughnessTexture" : {
                    "index" : 5,
                    "texCoord" : 0
                }
            }
        }
    ],
    "meshes" : [
        {
            "name" : "Plane",
            "primitives" : [
                {
                    "attributes" : {
                        "POSITION" : 0,
                        "NORMAL" : 1,
                        "TEXCOORD_0" : 2
                    },
                    "indices" : 3,
                    "material" : 0
                }
            ]
        },
        {
            "name" : "Cube",
            "primitives" : [
                {
                    "attributes" : {
                        "POSITION" : 4,
                        "NORMAL" : 5,
                        "TEXCOORD_0" : 6,
                        "JOINTS_0" : 7,
                        "WEIGHTS_0" : 8
                    },
                    "indices" : 9,
                    "material" : 1
                }
            ]
        },
        {
            "name" : "Cylinder",
            "primitives" : [
                {
                    "attributes" : {
                        "POSITION" : 11,
                        "NORMAL" : 12,
                        "TEXCOORD_0" : 13,
                        "JOINTS_0" : 14,
                        "WEIGHTS_0" : 15
                    },
                    "indices" : 16,
                    "material" : 1
                }
            ]
        },
        {
            "name" : "Cylinder.002",
            "primitives" : [
                {
                    "attributes" : {
                        "POSITION" : 17,
                        "NORMAL" : 18,
                        "TEXCOORD_0" : 19,
                        "JOINTS_0" : 20,
                        "WEIGHTS_0" : 21
                    },
                    "indices" : 22,
                    "material" : 1
                }
            ]
        }
    ],
    "textures" : [
        {
            "source" : 0
        },
        {
            "source" : 1
        },
        {
            "source" : 2
        },
        {
            "source" : 3
        },
        {
            "source" : 4
        },
        {
            "source" : 5
        }
    ],
    "images" : [
        {
            "mimeType" : "image/jpeg",
            "name" : "rocks_ground_06_nor_1k",
            "uri" : "rocks_ground_06_nor_1k.jpg"
        },
        {
            "mimeType" : "image/jpeg",
            "name" : "rocks_ground_06_diff_1k",
            "uri" : "rocks_ground_06_diff_1k.jpg"
        },
        {
            "mimeType" : "image/png",
            "name" : "rocks_ground_06_rough_1k",
            "uri" : "rocks_ground_06_rough_1k.png"
        },
        {
            "mimeType" : "image/jpeg",
            "name" : "rusty_metal_02_nor_4k",
            "uri" : "rusty_metal_02_nor_4k.jpg"
        },
        {
            "mimeType" : "image/jpeg",
            "name" : "rusty_metal_02_diff_4k",
            "uri" : "rusty_metal_02_diff_4k.jpg"
        },
        {
            "mimeType" : "image/png",
            "name" : "rusty_metal_02_ao_4k-rusty_metal_02_rough_4k",
            "uri" : "rusty_metal_02_ao_4k-rusty_metal_02_rough_4k.png"
        }
    ],
    "skins" : [
        {
            "inverseBindMatrices" : 10,
            "joints" : [
                2,
                1
            ],
            "name" : "Armature"
        }
    ],
    "accessors" : [
        {
            "bufferView" : 0,
            "componentType" : 5126,
            "count" : 9704,
            "max" : [
                1.0000001192092896,
                0.18001554906368256,
                1.0000001192092896
            ],
            "min" : [
                -1.0000001192092896,
                -0.09710812568664551,
                -1.0000848770141602
            ],
            "type" : "VEC3"
        },
        {
            "bufferView" : 1,
            "componentType" : 5126,
            "count" : 9704,
            "type" : "VEC3"
        },
        {
            "bufferView" : 2,
            "componentType" : 5126,
            "count" : 9704,
            "type" : "VEC2"
        },
        {
            "bufferView" : 3,
            "componentType" : 5123,
            "count" : 52992,
            "type" : "SCALAR"
        },
        {
            "bufferView" : 4,
            "componentType" : 5126,
            "count" : 1500,
            "max" : [
                2.5924055576324463,
                9.149124145507812,
                10.223883628845215
            ],
            "min" : [
                -2.5924055576324463,
                -0.7282676696777344,
                6.708193778991699
            ],
            "type" : "VEC3"
        },
        {
            "bufferView" : 5,
            "componentType" : 5126,
            "count" : 1500,
            "type" : "VEC3"
        },
        {
            "bufferView" : 6,
            "componentType" : 5126,
            "count" : 1500,
            "type" : "VEC2"
        },
        {
            "bufferView" : 7,
            "componentType" : 5123,
            "count" : 1500,
            "type" : "VEC4"
        },
        {
            "bufferView" : 8,
            "componentType" : 5126,
            "count" : 1500,
            "type" : "VEC4"
        },
        {
            "bufferView" : 9,
            "componentType" : 5123,
            "count" : 2556,
            "type" : "SCALAR"
        },
        {
            "bufferView" : 10,
            "componentType" : 5126,
            "count" : 2,
            "type" : "MAT4"
        },
        {
            "bufferView" : 11,
            "componentType" : 5126,
            "count" : 1606,
            "max" : [
                1.6159000396728516,
                0.6867866516113281,
                10.081938743591309
            ],
            "min" : [
                -1.6158998012542725,
                -16.89386558532715,
                6.850139141082764
            ],
            "type" : "VEC3"
        },
        {
            "bufferView" : 12,
            "componentType" : 5126,
            "count" : 1606,
            "type" : "VEC3"
        },
        {
            "bufferView" : 13,
            "componentType" : 5126,
            "count" : 1606,
            "type" : "VEC2"
        },
        {
            "bufferView" : 14,
            "componentType" : 5123,
            "count" : 1606,
            "type" : "VEC4"
        },
        {
            "bufferView" : 15,
            "componentType" : 5126,
            "count" : 1606,
            "type" : "VEC4"
        },
        {
            "bufferView" : 16,
            "componentType" : 5123,
            "count" : 2544,
            "type" : "SCALAR"
        },
        {
            "bufferView" : 17,
            "componentType" : 5126,
            "count" : 192,
            "max" : [
                0.9640851616859436,
                0.2733849585056305,
                8.764873504638672
            ],
            "min" : [
                -0.9640851616859436,
                -0.32428446412086487,
                8.167203903198242
            ],
            "type" : "VEC3"
        },
        {
            "bufferView" : 18,
            "componentType" : 5126,
            "count" : 192,
            "type" : "VEC3"
        },
        {
            "bufferView" : 19,
            "componentType" : 5126,
            "count" : 192,
            "type" : "VEC2"
        },
        {
            "bufferView" : 20,
            "componentType" : 5123,
            "count" : 192,
            "type" : "VEC4"
        },
        {
            "bufferView" : 21,
            "componentType" : 5126,
            "count" : 192,
            "type" : "VEC4"
        },
        {
            "bufferView" : 22,
            "componentType" : 5123,
            "count" : 372,
            "type" : "SCALAR"
        },
        {
            "bufferView" : 23,
            "componentType" : 5126,
            "count" : 52,
            "max" : [
                2.04
            ],
            "min" : [
                0
            ],
            "type" : "SCALAR"
        },
        {
            "bufferView" : 24,
            "componentType" : 5126,
            "count" : 52,
            "type" : "VEC3"
        },
        {
            "bufferView" : 25,
            "componentType" : 5126,
            "count" : 52,
            "type" : "VEC4"
        },
        {
            "bufferView" : 26,
            "componentType" : 5126,
            "count" : 52,
            "type" : "VEC3"
        },
        {
            "bufferView" : 27,
            "componentType" : 5126,
            "count" : 52,
            "type" : "VEC3"
        },
        {
            "bufferView" : 28,
            "componentType" : 5126,
            "count" : 52,
            "type" : "VEC4"
        },
        {
            "bufferView" : 29,
            "componentType" : 5126,
            "count" : 52,
            "type" : "VEC3"
        }
    ],
    "bufferViews" : [
        {
            "buffer" : 0,
            "byteLength" : 116448,
            "byteOffset" : 0
        },
        {
            "buffer" : 0,
            "byteLength" : 116448,
            "byteOffset" : 116448
        },
        {
            "buffer" : 0,
            "byteLength" : 77632,
            "byteOffset" : 232896
        },
        {
            "buffer" : 0,
            "byteLength" : 105984,
            "byteOffset" : 310528
        },
        {
            "buffer" : 0,
            "byteLength" : 18000,
            "byteOffset" : 416512
        },
        {
            "buffer" : 0,
            "byteLength" : 18000,
            "byteOffset" : 434512
        },
        {
            "buffer" : 0,
            "byteLength" : 12000,
            "byteOffset" : 452512
        },
        {
            "buffer" : 0,
            "byteLength" : 12000,
            "byteOffset" : 464512
        },
        {
            "buffer" : 0,
            "byteLength" : 24000,
            "byteOffset" : 476512
        },
        {
            "buffer" : 0,
            "byteLength" : 5112,
            "byteOffset" : 500512
        },
        {
            "buffer" : 0,
            "byteLength" : 128,
            "byteOffset" : 505624
        },
        {
            "buffer" : 0,
            "byteLength" : 19272,
            "byteOffset" : 505752
        },
        {
            "buffer" : 0,
            "byteLength" : 19272,
            "byteOffset" : 525024
        },
        {
            "buffer" : 0,
            "byteLength" : 12848,
            "byteOffset" : 544296
        },
        {
            "buffer" : 0,
            "byteLength" : 12848,
            "byteOffset" : 557144
        },
        {
            "buffer" : 0,
            "byteLength" : 25696,
            "byteOffset" : 569992
        },
        {
            "buffer" : 0,
            "byteLength" : 5088,
            "byteOffset" : 595688
        },
        {
            "buffer" : 0,
            "byteLength" : 2304,
            "byteOffset" : 600776
        },
        {
            "buffer" : 0,
            "byteLength" : 2304,
            "byteOffset" : 603080
        },
        {
            "buffer" : 0,
            "byteLength" : 1536,
            "byteOffset" : 605384
        },
        {
            "buffer" : 0,
            "byteLength" : 1536,
            "byteOffset" : 606920
        },
        {
            "buffer" : 0,
            "byteLength" : 3072,
            "byteOffset" : 608456
        },
        {
            "buffer" : 0,
            "byteLength" : 744,
            "byteOffset" : 611528
        },
        {
            "buffer" : 0,
            "byteLength" : 208,
            "byteOffset" : 612272
        },
        {
            "buffer" : 0,
            "byteLength" : 624,
            "byteOffset" : 612480
        },
        {
            "buffer" : 0,
            "byteLength" : 832,
            "byteOffset" : 613104
        },
        {
            "buffer" : 0,
            "byteLength" : 624,
            "byteOffset" : 613936
        },
        {
            "buffer" : 0,
            "byteLength" : 624,
            "byteOffset" : 614560
        },
        {
            "buffer" : 0,
            "byteLength" : 832,
            "byteOffset" : 615184
        },
        {
            "buffer" : 0,
            "byteLength" : 624,
            "byteOffset" : 616016
        }
    ],
    "buffers" : [
        {
            "byteLength" : 616640,
            "uri" : "scoopSmallAnimated.bin"
        }
    ]
}
