{
    "asset" : {
        "generator" : "Khronos glTF Blender I/O v1.3.48",
        "version" : "2.0"
    },
    "scene" : 0,
    "scenes" : [
        {
            "name" : "Scene",
            "nodes" : [
                0,
                2,
                3
            ]
        }
    ],
    "nodes" : [
        {
            "mesh" : 0,
            "name" : "Plane",
            "scale" : [
                16.332937240600586,
                16.332937240600586,
                16.332937240600586
            ],
            "translation" : [
                0,
                -0.11808788031339645,
                0
            ]
        },
        {
            "mesh" : 1,
            "name" : "Cube",
            "scale" : [
                1.6525347232818604,
                0.36887991428375244,
                1.1276980638504028
            ],
            "translation" : [
                0,
                2.7380642890930176,
                -3.441236913204193e-06
            ]
        },
        {
            "children" : [
                1
            ],
            "mesh" : 2,
            "name" : "Cylinder",
            "rotation" : [
                0.17219363152980804,
                0.6868798732757568,
                0.1727629005908966,
                0.6846154928207397
            ],
            "scale" : [
                1.2390872240066528,
                5.2952446937561035,
                1.2390872240066528
            ],
            "translation" : [
                0,
                16.66588020324707,
                -6.916975975036621
            ]
        },
        {
            "name" : "Camera",
            "rotation" : [
                0.19631648063659668,
                0.7362614870071411,
                -0.6013359427452087,
                0.24036237597465515
            ],
            "translation" : [
                10.68155574798584,
                6.396852016448975,
                -14.396929740905762
            ]
        }
    ],
    "animations" : [
        {
            "channels" : [
                {
                    "sampler" : 0,
                    "target" : {
                        "node" : 0,
                        "path" : "translation"
                    }
                },
                {
                    "sampler" : 1,
                    "target" : {
                        "node" : 0,
                        "path" : "rotation"
                    }
                }
            ],
            "name" : "PlaneAction.001",
            "samplers" : [
                {
                    "input" : 12,
                    "interpolation" : "STEP",
                    "output" : 13
                },
                {
                    "input" : 12,
                    "interpolation" : "STEP",
                    "output" : 14
                }
            ]
        },
        {
            "channels" : [
                {
                    "sampler" : 0,
                    "target" : {
                        "node" : 1,
                        "path" : "translation"
                    }
                },
                {
                    "sampler" : 1,
                    "target" : {
                        "node" : 1,
                        "path" : "rotation"
                    }
                }
            ],
            "name" : "CubeAction",
            "samplers" : [
                {
                    "input" : 12,
                    "interpolation" : "STEP",
                    "output" : 15
                },
                {
                    "input" : 12,
                    "interpolation" : "STEP",
                    "output" : 16
                }
            ]
        },
        {
            "channels" : [
                {
                    "sampler" : 0,
                    "target" : {
                        "node" : 2,
                        "path" : "rotation"
                    }
                }
            ],
            "name" : "CylinderAction",
            "samplers" : [
                {
                    "input" : 17,
                    "interpolation" : "LINEAR",
                    "output" : 18
                }
            ]
        }
    ],
    "materials" : [
        {
            "doubleSided" : true,
            "emissiveFactor" : [
                0,
                0,
                0
            ],
            "name" : "Material.001",
            "normalTexture" : {
                "index" : 0,
                "texCoord" : 0
            },
            "pbrMetallicRoughness" : {
                "baseColorTexture" : {
                    "index" : 1,
                    "texCoord" : 0
                },
                "metallicFactor" : 0,
                "metallicRoughnessTexture" : {
                    "index" : 2,
                    "texCoord" : 0
                }
            }
        },
        {
            "doubleSided" : true,
            "emissiveFactor" : [
                0,
                0,
                0
            ],
            "name" : "Material.002",
            "pbrMetallicRoughness" : {
                "baseColorFactor" : [
                    0.800000011920929,
                    0.800000011920929,
                    0.800000011920929,
                    1
                ],
                "metallicFactor" : 1,
                "roughnessFactor" : 0.20866140723228455
            }
        },
        {
            "doubleSided" : true,
            "emissiveFactor" : [
                0,
                0,
                0
            ],
            "name" : "Material",
            "normalTexture" : {
                "index" : 3,
                "texCoord" : 0
            },
            "pbrMetallicRoughness" : {
                "baseColorTexture" : {
                    "index" : 4,
                    "texCoord" : 0
                },
                "metallicRoughnessTexture" : {
                    "index" : 5,
                    "texCoord" : 0
                }
            }
        }
    ],
    "meshes" : [
        {
            "name" : "Plane",
            "primitives" : [
                {
                    "attributes" : {
                        "POSITION" : 0,
                        "NORMAL" : 1,
                        "TEXCOORD_0" : 2
                    },
                    "indices" : 3,
                    "material" : 0
                }
            ]
        },
        {
            "name" : "Cube.002",
            "primitives" : [
                {
                    "attributes" : {
                        "POSITION" : 4,
                        "NORMAL" : 5,
                        "TEXCOORD_0" : 6
                    },
                    "indices" : 7,
                    "material" : 1
                }
            ]
        },
        {
            "name" : "Cylinder",
            "primitives" : [
                {
                    "attributes" : {
                        "POSITION" : 8,
                        "NORMAL" : 9,
                        "TEXCOORD_0" : 10
                    },
                    "indices" : 11,
                    "material" : 2
                }
            ]
        }
    ],
    "textures" : [
        {
            "source" : 0
        },
        {
            "source" : 1
        },
        {
            "source" : 2
        },
        {
            "source" : 3
        },
        {
            "source" : 4
        },
        {
            "source" : 5
        }
    ],
    "images" : [
        {
            "mimeType" : "image/jpeg",
            "name" : "rocks_ground_06_nor_1k",
            "uri" : "rocks_ground_06_nor_1k.jpg"
        },
        {
            "mimeType" : "image/jpeg",
            "name" : "rocks_ground_06_diff_1k",
            "uri" : "rocks_ground_06_diff_1k.jpg"
        },
        {
            "mimeType" : "image/png",
            "name" : "rocks_ground_06_rough_1k",
            "uri" : "rocks_ground_06_rough_1k.png"
        },
        {
            "mimeType" : "image/jpeg",
            "name" : "rusty_metal_02_nor_4k",
            "uri" : "rusty_metal_02_nor_4k.jpg"
        },
        {
            "mimeType" : "image/jpeg",
            "name" : "rusty_metal_02_diff_4k",
            "uri" : "rusty_metal_02_diff_4k.jpg"
        },
        {
            "mimeType" : "image/png",
            "name" : "rusty_metal_02_ao_4k.jpg-rusty_metal_02_rough_4k.jpg",
            "uri" : "rusty_metal_02_ao_4k_jpg-rusty_metal_02_rough_4k_jpg.png"
        }
    ],
    "accessors" : [
        {
            "bufferView" : 0,
            "componentType" : 5126,
            "count" : 9704,
            "max" : [
                1.0000001192092896,
                0.18001554906368256,
                1.0000001192092896
            ],
            "min" : [
                -1.0000001192092896,
                -0.09710812568664551,
                -1.0000848770141602
            ],
            "type" : "VEC3"
        },
        {
            "bufferView" : 1,
            "componentType" : 5126,
            "count" : 9704,
            "type" : "VEC3"
        },
        {
            "bufferView" : 2,
            "componentType" : 5126,
            "count" : 9704,
            "type" : "VEC2"
        },
        {
            "bufferView" : 3,
            "componentType" : 5123,
            "count" : 52992,
            "type" : "SCALAR"
        },
        {
            "bufferView" : 4,
            "componentType" : 5126,
            "count" : 115,
            "max" : [
                2.7266392707824707,
                1,
                1
            ],
            "min" : [
                -1.8486053943634033,
                -1,
                -1
            ],
            "type" : "VEC3"
        },
        {
            "bufferView" : 5,
            "componentType" : 5126,
            "count" : 115,
            "type" : "VEC3"
        },
        {
            "bufferView" : 6,
            "componentType" : 5126,
            "count" : 115,
            "type" : "VEC2"
        },
        {
            "bufferView" : 7,
            "componentType" : 5123,
            "count" : 264,
            "type" : "SCALAR"
        },
        {
            "bufferView" : 8,
            "componentType" : 5126,
            "count" : 673,
            "max" : [
                1.3809828758239746,
                3.1144144535064697,
                1.3809828758239746
            ],
            "min" : [
                -1.3809826374053955,
                -1.5542566776275635,
                -1.380982756614685
            ],
            "type" : "VEC3"
        },
        {
            "bufferView" : 9,
            "componentType" : 5126,
            "count" : 673,
            "type" : "VEC3"
        },
        {
            "bufferView" : 10,
            "componentType" : 5126,
            "count" : 673,
            "type" : "VEC2"
        },
        {
            "bufferView" : 11,
            "componentType" : 5123,
            "count" : 2676,
            "type" : "SCALAR"
        },
        {
            "bufferView" : 12,
            "componentType" : 5126,
            "count" : 1,
            "max" : [
                0
            ],
            "min" : [
                0
            ],
            "type" : "SCALAR"
        },
        {
            "bufferView" : 13,
            "componentType" : 5126,
            "count" : 1,
            "type" : "VEC3"
        },
        {
            "bufferView" : 14,
            "componentType" : 5126,
            "count" : 1,
            "type" : "VEC4"
        },
        {
            "bufferView" : 15,
            "componentType" : 5126,
            "count" : 1,
            "type" : "VEC3"
        },
        {
            "bufferView" : 16,
            "componentType" : 5126,
            "count" : 1,
            "type" : "VEC4"
        },
        {
            "bufferView" : 17,
            "componentType" : 5126,
            "count" : 56,
            "max" : [
                2.4
            ],
            "min" : [
                0.2
            ],
            "type" : "SCALAR"
        },
        {
            "bufferView" : 18,
            "componentType" : 5126,
            "count" : 56,
            "type" : "VEC4"
        }
    ],
    "bufferViews" : [
        {
            "buffer" : 0,
            "byteLength" : 116448,
            "byteOffset" : 0
        },
        {
            "buffer" : 0,
            "byteLength" : 116448,
            "byteOffset" : 116448
        },
        {
            "buffer" : 0,
            "byteLength" : 77632,
            "byteOffset" : 232896
        },
        {
            "buffer" : 0,
            "byteLength" : 105984,
            "byteOffset" : 310528
        },
        {
            "buffer" : 0,
            "byteLength" : 1380,
            "byteOffset" : 416512
        },
        {
            "buffer" : 0,
            "byteLength" : 1380,
            "byteOffset" : 417892
        },
        {
            "buffer" : 0,
            "byteLength" : 920,
            "byteOffset" : 419272
        },
        {
            "buffer" : 0,
            "byteLength" : 528,
            "byteOffset" : 420192
        },
        {
            "buffer" : 0,
            "byteLength" : 8076,
            "byteOffset" : 420720
        },
        {
            "buffer" : 0,
            "byteLength" : 8076,
            "byteOffset" : 428796
        },
        {
            "buffer" : 0,
            "byteLength" : 5384,
            "byteOffset" : 436872
        },
        {
            "buffer" : 0,
            "byteLength" : 5352,
            "byteOffset" : 442256
        },
        {
            "buffer" : 0,
            "byteLength" : 4,
            "byteOffset" : 447608
        },
        {
            "buffer" : 0,
            "byteLength" : 12,
            "byteOffset" : 447612
        },
        {
            "buffer" : 0,
            "byteLength" : 16,
            "byteOffset" : 447624
        },
        {
            "buffer" : 0,
            "byteLength" : 12,
            "byteOffset" : 447640
        },
        {
            "buffer" : 0,
            "byteLength" : 16,
            "byteOffset" : 447652
        },
        {
            "buffer" : 0,
            "byteLength" : 224,
            "byteOffset" : 447668
        },
        {
            "buffer" : 0,
            "byteLength" : 896,
            "byteOffset" : 447892
        }
    ],
    "buffers" : [
        {
            "byteLength" : 448788,
            "uri" : "hammerAnimated.bin"
        }
    ]
}
